<svg width="19" height="24" viewBox="0 0 19 24" fill="none" xmlns="http://www.w3.org/2000/svg">
<path d="M8.38556 3.24999C7.33628 3.22787 6.2967 3.45467 5.35199 3.91182C4.40728 4.36897 3.58433 5.04344 2.95056 5.87998C1.89324 7.2559 1.30573 8.93501 1.27456 10.67C1.27456 11.095 1.28754 11.403 1.29754 11.65C1.32954 12.422 1.32955 12.422 0.530545 14.18L0.514555 14.218C0.299876 14.7098 0.213756 15.2481 0.264311 15.7823C0.314865 16.3166 0.500435 16.8292 0.803555 17.272C1.69768 18.3557 2.91385 19.1263 4.27557 19.472C6.95156 20.3096 9.81955 20.3096 12.4955 19.472C13.8573 19.1264 15.0735 18.3558 15.9676 17.272C16.2705 16.8291 16.4559 16.3164 16.5063 15.7822C16.5567 15.248 16.4704 14.7097 16.2556 14.218L16.2396 14.18C15.4396 12.423 15.4396 12.423 15.4736 11.65C15.4836 11.403 15.4965 11.095 15.4965 10.669C15.4657 8.93412 14.8785 7.25503 13.8216 5.87898C13.1876 5.04249 12.3644 4.36811 11.4195 3.91113C10.4746 3.45416 9.43491 3.22759 8.38556 3.24999V3.24999ZM1.90555 14.78C2.77555 12.863 2.84056 12.687 2.79556 11.589C2.78556 11.355 2.77456 11.065 2.77456 10.67C2.77456 8.73798 4.14656 4.74999 8.38556 4.74999C12.6246 4.74999 13.9965 8.73798 13.9965 10.67C13.9965 11.064 13.9845 11.355 13.9745 11.589C13.9295 12.689 13.9946 12.863 14.8646 14.78C14.9875 15.0422 15.0397 15.332 15.0158 15.6206C14.9919 15.9092 14.8929 16.1865 14.7285 16.425C13.7985 17.785 10.7726 18.598 8.38556 18.598C5.99856 18.598 2.97256 17.785 2.04156 16.425C1.87784 16.1862 1.7795 15.9087 1.75634 15.6201C1.73319 15.3315 1.786 15.0418 1.90954 14.78H1.90555Z" fill="#9397A0"/>
<path d="M8.39155 23.839C8.93704 23.8323 9.47482 23.7093 9.96891 23.478C10.463 23.2468 10.902 22.9126 11.2565 22.498C11.3891 22.3496 11.4574 22.1546 11.4462 21.9559C11.435 21.7572 11.3454 21.5711 11.197 21.4385C11.0486 21.3059 10.8537 21.2377 10.655 21.2488C10.4563 21.26 10.2702 21.3496 10.1376 21.498C9.92282 21.7542 9.65592 21.9618 9.35468 22.1068C9.05345 22.2518 8.72477 22.331 8.39054 22.339V22.339C8.05537 22.3314 7.72568 22.2524 7.42341 22.1074C7.12114 21.9624 6.85325 21.7546 6.63755 21.498C6.57207 21.4239 6.49259 21.3635 6.4037 21.3203C6.3148 21.2771 6.2182 21.2518 6.11952 21.246C6.02083 21.2403 5.92197 21.254 5.82862 21.2866C5.73528 21.3191 5.64931 21.3698 5.57563 21.4357C5.50195 21.5016 5.44202 21.5815 5.3993 21.6706C5.35658 21.7598 5.33188 21.8565 5.32667 21.9552C5.32146 22.0539 5.33581 22.1527 5.36891 22.2459C5.402 22.339 5.45321 22.4247 5.51954 22.498C5.87519 22.9131 6.31538 23.2475 6.81068 23.4787C7.30597 23.71 7.84496 23.8328 8.39155 23.839V23.839Z" fill="#9397A0"/>
<path d="M14.541 8.34302C16.7502 8.34302 18.541 6.55216 18.541 4.34302C18.541 2.13388 16.7502 0.343018 14.541 0.343018C12.3319 0.343018 10.541 2.13388 10.541 4.34302C10.541 6.55216 12.3319 8.34302 14.541 8.34302Z" fill="#EF2121"/>
<path d="M14.541 1.34302C13.9477 1.34302 13.3677 1.51896 12.8743 1.84861C12.381 2.17825 11.9964 2.64679 11.7694 3.19497C11.5423 3.74315 11.4829 4.34635 11.5987 4.92829C11.7144 5.51023 12.0001 6.04478 12.4197 6.46434C12.8393 6.8839 13.3738 7.16962 13.9557 7.28537C14.5377 7.40113 15.1409 7.34172 15.6891 7.11466C16.2372 6.88759 16.7058 6.50308 17.0354 6.00973C17.3651 5.51638 17.541 4.93636 17.541 4.34302C17.541 3.54737 17.2249 2.78431 16.6623 2.2217C16.0997 1.65909 15.3367 1.34302 14.541 1.34302ZM14.541 0.343018C15.3321 0.343018 16.1055 0.577614 16.7633 1.01714C17.4211 1.45666 17.9338 2.08138 18.2365 2.81228C18.5393 3.54319 18.6185 4.34745 18.4642 5.12338C18.3098 5.8993 17.9289 6.61203 17.3694 7.17144C16.81 7.73085 16.0973 8.11182 15.3214 8.26616C14.5455 8.4205 13.7412 8.34129 13.0103 8.03854C12.2794 7.73579 11.6547 7.22309 11.2151 6.5653C10.7756 5.9075 10.541 5.13414 10.541 4.34302C10.541 3.28215 10.9624 2.26474 11.7126 1.51459C12.4627 0.764445 13.4801 0.343018 14.541 0.343018V0.343018Z" fill="white"/>
</svg>
