<svg width="20" height="20" viewBox="0 0 20 20" fill="none" xmlns="http://www.w3.org/2000/svg">
<path d="M0.75 11.713C0.75 8.86889 0.918367 7.76179 1.37079 6.97262C1.59645 6.57899 1.91557 6.2271 2.42084 5.7611C2.63914 5.55976 2.8822 5.34594 3.16134 5.10037C3.20575 5.0613 3.25107 5.02143 3.29735 4.98068C3.62666 4.69071 3.99712 4.36256 4.40972 3.98075C4.67412 3.76729 4.94549 3.53629 5.22626 3.2973C5.77276 2.8321 6.35486 2.3366 6.99049 1.88112C7.96326 1.18406 8.84299 0.752991 9.55801 0.752991C10.2759 0.752991 11.1678 1.18406 12.154 1.88011C12.816 2.34735 13.4296 2.86385 14.0003 3.34419C14.2651 3.56707 14.5206 3.78216 14.7675 3.98094C15.1799 4.36293 15.5502 4.69127 15.8793 4.9814C15.9257 5.02228 15.9711 5.06227 16.0156 5.10145C16.2946 5.34715 16.5375 5.5611 16.7557 5.76254C17.261 6.22895 17.58 6.58105 17.8056 6.97475C18.2579 7.76397 18.426 8.8704 18.426 11.713C18.426 13.769 18.3029 15.2451 18.0248 16.3153C17.7518 17.3658 17.3449 17.9679 16.8058 18.3548C16.2427 18.759 15.439 18.9997 14.2285 19.1245C13.0193 19.2491 11.511 19.25 9.59 19.25C7.66902 19.25 6.1604 19.2491 4.9508 19.1245C3.74 18.9997 2.93561 18.7589 2.37202 18.3547C1.83238 17.9676 1.42503 17.3655 1.15173 16.3151C0.873308 15.245 0.75 13.769 0.75 11.713Z" fill="white" stroke="#9397A0" stroke-width="1.5"/>
<path d="M12.894 14.885H7.07901C6.8801 14.885 6.68933 14.806 6.54868 14.6653C6.40802 14.5247 6.32901 14.3339 6.32901 14.135C6.32901 13.9361 6.40802 13.7453 6.54868 13.6047C6.68933 13.464 6.8801 13.385 7.07901 13.385H12.894C13.0929 13.385 13.2837 13.464 13.4243 13.6047C13.565 13.7453 13.644 13.9361 13.644 14.135C13.644 14.3339 13.565 14.5247 13.4243 14.6653C13.2837 14.806 13.0929 14.885 12.894 14.885Z" fill="#9397A0"/>
</svg>
